# xmcd CD database file generated by OrangeCD 6.2
#
# Track frame offsets:
#	150
#	11658
#	23362
#	31953
#	43964
#	56880
#	73881
#	87448
#	102872
#	119266
#	130356
#	150907
#	166662
#	184214
#	207003
#	225139
#	241997
#	260593
#
# Disc length: 3683 seconds
#
# Revision: 2
# Processed by: cddbd v1.5.2PL0 Copyright (c) Steve Scherf et al.
# Submitted via: OrangeCD 6.2
#
DISCID=e60e6112
DTITLE=Natalie Cole - Ibiza Chillout: Jazz Lounge - Natalie Cole The Best Of Bl
DTITLE=ack Vocal
DYEAR=2004
DGENRE=Jazz
TTITLE0=L.O.V.E.
TTITLE1=Don't Get Around Much Anymore
TTITLE2=For Sentimental Reasons
TTITLE3=Tenderly
TTITLE4=Autumn Leaves
TTITLE5=Mona Lisa
TTITLE6=Rout 66
TTITLE7=Nature Boy
TTITLE8=Smile
TTITLE9=Orange Colored Sky
TTITLE10=Too Young
TTITLE11=I'm Beginning to See the Light
TTITLE12=Cry Me a River
TTITLE13=Calypso Blues
TTITLE14=Swinging Shepherd Blues
TTITLE15=As Time Goes By
TTITLE16=I Wish You Love
TTITLE17=Unforgettable
EXTD=
EXTT0=
EXTT1=
EXTT2=
EXTT3=
EXTT4=
EXTT5=
EXTT6=
EXTT7=
EXTT8=
EXTT9=
EXTT10=
EXTT11=
EXTT12=
EXTT13=
EXTT14=
EXTT15=
EXTT16=
EXTT17=
PLAYORDER=
